<svg width="22" height="19" viewBox="0 0 22 19" fill="currentColor" xmlns="http://www.w3.org/2000/svg">
<path d="M11 0.0180664C16.392 0.0180664 20.878 3.89807 21.819 9.01807C20.879 14.1381 16.392 18.0181 11 18.0181C5.608 18.0181 1.122 14.1381 0.181 9.01807C1.121 3.89807 5.608 0.0180664 11 0.0180664ZM11 16.0181C13.0395 16.0176 15.0184 15.3249 16.6129 14.0532C18.2073 12.7816 19.3229 11.0063 19.777 9.01807C19.3212 7.03137 18.2049 5.25807 16.6106 3.98809C15.0163 2.71811 13.0383 2.02659 11 2.02659C8.9617 2.02659 6.98369 2.71811 5.38938 3.98809C3.79506 5.25807 2.67877 7.03137 2.223 9.01807C2.6771 11.0063 3.79267 12.7816 5.38714 14.0532C6.98161 15.3249 8.96053 16.0176 11 16.0181ZM11 13.5181C9.80653 13.5181 8.66193 13.044 7.81802 12.2C6.97411 11.3561 6.5 10.2115 6.5 9.01807C6.5 7.82459 6.97411 6.68 7.81802 5.83609C8.66193 4.99217 9.80653 4.51807 11 4.51807C12.1935 4.51807 13.3381 4.99217 14.182 5.83609C15.0259 6.68 15.5 7.82459 15.5 9.01807C15.5 10.2115 15.0259 11.3561 14.182 12.2C13.3381 13.044 12.1935 13.5181 11 13.5181ZM11 11.5181C11.663 11.5181 12.2989 11.2547 12.7678 10.7858C13.2366 10.317 13.5 9.68111 13.5 9.01807C13.5 8.35503 13.2366 7.71914 12.7678 7.2503C12.2989 6.78146 11.663 6.51807 11 6.51807C10.337 6.51807 9.70107 6.78146 9.23223 7.2503C8.76339 7.71914 8.5 8.35503 8.5 9.01807C8.5 9.68111 8.76339 10.317 9.23223 10.7858C9.70107 11.2547 10.337 11.5181 11 11.5181Z" fill="currentColor"/>
</svg>
