<svg width="19" height="20" viewBox="0 0 19 20" fill="currentColor" xmlns="http://www.w3.org/2000/svg">
<path d="M2.24161 19.4943C1.72249 19.4923 1.22059 19.3028 0.823792 18.959C0.426254 18.6317 0.152632 18.172 0.0502911 17.6594C-0.0520496 17.1468 0.023333 16.6136 0.26339 16.152L7.45709 1.74328C7.64408 1.36904 7.92794 1.05502 8.27744 0.835761C8.62695 0.616499 9.02856 0.500488 9.43811 0.500488C9.84766 0.500488 10.2493 0.616499 10.5988 0.835761C10.9483 1.05502 11.2321 1.36904 11.4191 1.74328L18.6222 16.1559C18.8558 16.6207 18.9273 17.1538 18.8248 17.6662C18.7223 18.1786 18.452 18.6395 18.0589 18.9722C17.6658 19.3048 17.1736 19.4891 16.6643 19.4944C16.155 19.4997 15.6593 19.3256 15.2598 19.0012L9.65573 14.4905C9.59272 14.4393 9.51472 14.4115 9.43437 14.4115C9.35402 14.4115 9.27603 14.4393 9.21301 14.4905L3.60899 19.0012C3.21962 19.3178 2.73823 19.4914 2.24161 19.4943ZM9.43904 2.41863C9.37361 2.41645 9.30891 2.4333 9.25239 2.46725C9.19588 2.50119 9.14985 2.55085 9.11961 2.61049L1.91658 17.0308C1.87377 17.1043 1.85942 17.1916 1.87637 17.2755C1.89333 17.3594 1.94035 17.4336 2.00811 17.4836C2.06928 17.5419 2.14969 17.5744 2.2332 17.5744C2.31671 17.5744 2.39713 17.5419 2.4583 17.4836L8.06606 12.971C8.45764 12.6551 8.94113 12.4834 9.43904 12.4834C9.93695 12.4834 10.4204 12.6551 10.812 12.971L16.4161 17.4816C16.4805 17.5333 16.5601 17.5608 16.6418 17.5597C16.7236 17.5585 16.8024 17.5287 16.8654 17.4752C16.9284 17.4217 16.9717 17.3477 16.9882 17.2655C17.0046 17.1833 16.9932 17.0978 16.9559 17.0231L9.75847 2.61049C9.72824 2.55085 9.68221 2.50119 9.6257 2.46725C9.56918 2.4333 9.50448 2.41645 9.43904 2.41863Z" fill="#A6ADB9"/>
</svg>
